<mxfile host="app.diagrams.net" modified="2024-07-08T18:02:53.550Z" agent="Mozilla/5.0 (Windows NT 10.0; Win64; x64) AppleWebKit/537.36 (KHTML, like Gecko) Chrome/122.0.0.0 Safari/537.36" version="24.6.4" etag="a-ENV--SIb9LgQDH_3ah" type="github">
  <diagram name="Page-1" id="qpkBkBA3s0i6VP-9R33i">
    <mxGraphModel>
      <root>
        <mxCell id="0" />
        <mxCell id="1" parent="0" />
      </root>
    </mxGraphModel>
  </diagram>
</mxfile>
